<svg width="24" height="24" viewBox="0 0 24 24" fill="none" xmlns="http://www.w3.org/2000/svg">
<g clip-path="url(#clip0_287_379)">
<path d="M3.63599 11.293C3.44852 11.4805 3.3432 11.7348 3.3432 12C3.3432 12.2652 3.44852 12.5195 3.63599 12.707L9.29299 18.364C9.38523 18.4595 9.49558 18.5357 9.61758 18.5881C9.73959 18.6405 9.87081 18.6681 10.0036 18.6692C10.1364 18.6704 10.268 18.6451 10.3909 18.5948C10.5138 18.5445 10.6255 18.4703 10.7194 18.3764C10.8133 18.2825 10.8875 18.1708 10.9378 18.0479C10.9881 17.9251 11.0134 17.7934 11.0122 17.6606C11.0111 17.5278 10.9835 17.3966 10.9311 17.2746C10.8787 17.1526 10.8025 17.0422 10.707 16.95L6.75699 13H20C20.2652 13 20.5196 12.8946 20.7071 12.7071C20.8946 12.5196 21 12.2652 21 12C21 11.7348 20.8946 11.4804 20.7071 11.2929C20.5196 11.1054 20.2652 11 20 11H6.75699L10.707 7.04999C10.8891 6.86139 10.9899 6.60879 10.9877 6.34659C10.9854 6.0844 10.8802 5.83358 10.6948 5.64817C10.5094 5.46277 10.2586 5.3576 9.99639 5.35532C9.73419 5.35304 9.48159 5.45383 9.29299 5.63599L3.63599 11.293Z" fill="#494949"/>
</g>
<defs>
<clipPath id="clip0_287_379">
<rect width="24" height="24" fill="white" transform="matrix(0 -1 1 0 0 24)"/>
</clipPath>
</defs>
</svg>
