<svg width="20" height="20" viewBox="0 0 20 20" fill="none" xmlns="http://www.w3.org/2000/svg">
<path d="M9.16666 10.8333C9.16666 10.6123 9.25445 10.4004 9.41073 10.2441C9.56701 10.0878 9.77898 10 9.99999 10C10.221 10 10.433 10.0878 10.5892 10.2441C10.7455 10.4004 10.8333 10.6123 10.8333 10.8333V13.3333C10.8333 13.5543 10.7455 13.7663 10.5892 13.9226C10.433 14.0789 10.221 14.1667 9.99999 14.1667C9.77898 14.1667 9.56701 14.0789 9.41073 13.9226C9.25445 13.7663 9.16666 13.5543 9.16666 13.3333V10.8333ZM9.99999 6.25C9.66847 6.25 9.35053 6.38169 9.11611 6.61611C8.88169 6.85053 8.74999 7.16848 8.74999 7.5C8.74999 7.83152 8.88169 8.14946 9.11611 8.38388C9.35053 8.6183 9.66847 8.75 9.99999 8.75C10.3315 8.75 10.6495 8.6183 10.8839 8.38388C11.1183 8.14946 11.25 7.83152 11.25 7.5C11.25 7.16848 11.1183 6.85053 10.8839 6.61611C10.6495 6.38169 10.3315 6.25 9.99999 6.25ZM1.66666 10C1.66666 7.78986 2.54463 5.67024 4.10743 4.10744C5.67024 2.54464 7.78985 1.66666 9.99999 1.66666C12.2101 1.66666 14.3297 2.54464 15.8925 4.10744C17.4553 5.67024 18.3333 7.78986 18.3333 10C18.3333 12.2101 17.4553 14.3298 15.8925 15.8926C14.3297 17.4554 12.2101 18.3333 9.99999 18.3333C7.78985 18.3333 5.67024 17.4554 4.10743 15.8926C2.54463 14.3298 1.66666 12.2101 1.66666 10ZM9.99999 3.33333C8.23188 3.33333 6.53619 4.03571 5.28594 5.28595C4.0357 6.53619 3.33332 8.23189 3.33332 10C3.33332 11.7681 4.0357 13.4638 5.28594 14.714C6.53619 15.9643 8.23188 16.6667 9.99999 16.6667C11.7681 16.6667 13.4638 15.9643 14.714 14.714C15.9643 13.4638 16.6667 11.7681 16.6667 10C16.6667 8.23189 15.9643 6.53619 14.714 5.28595C13.4638 4.03571 11.7681 3.33333 9.99999 3.33333Z" fill="#959595"/>
</svg>
