<svg width="12" height="13" viewBox="0 0 12 13" fill="none" xmlns="http://www.w3.org/2000/svg">
<path fill-rule="evenodd" clip-rule="evenodd" d="M3.99402 3.3522C4.00692 3.25451 4.03895 3.16031 4.08827 3.075C4.13759 2.98969 4.20325 2.91493 4.28148 2.85501C4.3597 2.79508 4.44898 2.75116 4.54419 2.72575C4.6394 2.70034 4.73869 2.69394 4.83637 2.70693L8.70746 3.2202C8.80688 3.23096 8.90315 3.26149 8.9906 3.31C9.07806 3.35852 9.15492 3.42403 9.21668 3.50269C9.27844 3.58134 9.32385 3.67156 9.35022 3.76802C9.3766 3.86449 9.38342 3.96525 9.37028 4.06439C9.35714 4.16353 9.32431 4.25904 9.27371 4.34531C9.22311 4.43157 9.15577 4.50684 9.07566 4.56669C8.99554 4.62655 8.90426 4.66977 8.80719 4.69383C8.71012 4.71788 8.60922 4.72228 8.51042 4.70677L4.63879 4.194C4.44168 4.16782 4.26304 4.06444 4.14213 3.90658C4.02122 3.74873 3.96795 3.54932 3.99402 3.3522Z" fill="#585676"/>
<path fill-rule="evenodd" clip-rule="evenodd" d="M8.83911 8.61302C8.64051 8.62281 8.44616 8.55334 8.29877 8.41987C8.15138 8.28641 8.06302 8.09988 8.05311 7.90129L7.86008 4.00062C7.85273 3.90088 7.8654 3.80068 7.89735 3.70592C7.9293 3.61115 7.97987 3.52373 8.0461 3.4488C8.11234 3.37387 8.19288 3.31294 8.28301 3.2696C8.37314 3.22626 8.47102 3.20138 8.57091 3.19643C8.67079 3.19147 8.77065 3.20655 8.86463 3.24076C8.9586 3.27497 9.04478 3.32763 9.1181 3.39564C9.19142 3.46365 9.2504 3.54564 9.29156 3.63678C9.33273 3.72792 9.35525 3.82638 9.35781 3.92635L9.55139 7.82651C9.55631 7.92494 9.54178 8.02336 9.50864 8.11616C9.47549 8.20897 9.42439 8.29433 9.35824 8.36737C9.29209 8.44041 9.21219 8.4997 9.12312 8.54185C9.03404 8.584 8.93754 8.60819 8.83911 8.61302Z" fill="#585676"/>
<path fill-rule="evenodd" clip-rule="evenodd" d="M8.05726 4.47157C8.19201 4.61789 8.26312 4.81174 8.25495 5.01048C8.24677 5.20923 8.15998 5.39658 8.01366 5.53133L3.60023 9.59601C3.45391 9.73076 3.26006 9.80187 3.06132 9.79369C2.86257 9.78552 2.67521 9.69873 2.54046 9.55241C2.40571 9.4061 2.3346 9.21225 2.34278 9.0135C2.35095 8.81476 2.43774 8.6274 2.58406 8.49265L6.9975 4.42798C7.14381 4.29322 7.33766 4.22211 7.53641 4.23029C7.73515 4.23846 7.92251 4.32526 8.05726 4.47157Z" fill="#585676"/>
</svg>
