<svg width="584" height="182" viewBox="0 0 584 182" fill="none" xmlns="http://www.w3.org/2000/svg">
<path d="M201.12 122.87C196.558 122.934 192.012 122.303 187.64 121C183.409 119.623 179.51 117.382 176.19 114.42C175.299 113.688 174.571 112.778 174.05 111.75C173.568 110.823 173.311 109.795 173.3 108.75C173.296 107.947 173.45 107.152 173.754 106.409C174.058 105.666 174.505 104.99 175.07 104.42C175.634 103.81 176.322 103.327 177.088 103.005C177.853 102.682 178.679 102.527 179.51 102.55C180.836 102.537 182.124 102.99 183.15 103.83C185.595 105.867 188.315 107.551 191.23 108.83C194.379 110.057 197.742 110.638 201.12 110.54C203.6 110.568 206.066 110.151 208.4 109.31C210.408 108.614 212.235 107.48 213.75 105.99C214.384 105.37 214.888 104.63 215.231 103.812C215.575 102.995 215.751 102.117 215.75 101.23C215.801 99.2361 215.118 97.2928 213.83 95.77C212.215 94.0664 210.216 92.7738 208 92C204.751 90.8118 201.375 90.0031 197.94 89.59C194.453 89.1313 191.033 88.2619 187.75 87C185.051 85.9621 182.567 84.4367 180.42 82.5C178.487 80.7037 176.978 78.5007 176 76.05C174.966 73.4103 174.457 70.5945 174.5 67.76C174.38 63.5174 175.635 59.3497 178.08 55.88C180.556 52.5361 183.91 49.9435 187.77 48.39C192.046 46.6406 196.63 45.77 201.25 45.83C205.633 45.7869 209.992 46.4903 214.14 47.91C217.669 49.0632 220.955 50.8602 223.83 53.21C224.755 53.8459 225.517 54.6904 226.056 55.6754C226.594 56.6603 226.894 57.758 226.93 58.88C226.912 60.491 226.258 62.0297 225.11 63.16C224.574 63.7662 223.915 64.2517 223.177 64.5844C222.439 64.9171 221.639 65.0894 220.83 65.09C219.781 65.0912 218.763 64.7389 217.94 64.09C216.546 62.9371 214.997 61.9846 213.34 61.26C211.368 60.3538 209.328 59.6015 207.24 59.01C202.735 57.7044 197.94 57.7986 193.49 59.28C191.637 59.8894 189.989 61.0005 188.73 62.49C187.666 63.8267 187.1 65.4919 187.13 67.2C187.048 69.1475 187.717 71.0521 189 72.52C190.492 74.0636 192.349 75.2056 194.4 75.84C197.156 76.7551 199.973 77.4769 202.83 78C206.652 78.675 210.424 79.6071 214.12 80.79C217.032 81.6847 219.766 83.0788 222.2 84.91C224.322 86.5722 225.976 88.7568 227 91.25C228.143 94.1963 228.687 97.341 228.6 100.5C228.708 104.82 227.351 109.049 224.75 112.5C222.11 115.906 218.624 118.56 214.64 120.2C210.361 121.998 205.761 122.907 201.12 122.87Z" fill="#3B3F3F"/>
<path d="M247.34 121.8C246.485 121.823 245.634 121.668 244.842 121.344C244.05 121.021 243.334 120.536 242.74 119.92C242.14 119.306 241.67 118.579 241.358 117.78C241.045 116.981 240.896 116.127 240.92 115.27V49.14C240.898 48.2827 241.048 47.4297 241.36 46.6311C241.673 45.8325 242.142 45.1046 242.74 44.49C243.974 43.292 245.625 42.6219 247.345 42.6219C249.064 42.6219 250.716 43.292 251.95 44.49C252.548 45.1046 253.017 45.8325 253.33 46.6311C253.642 47.4297 253.792 48.2827 253.77 49.14V115.27C253.794 116.127 253.645 116.981 253.332 117.78C253.019 118.579 252.549 119.306 251.95 119.92C251.354 120.536 250.637 121.022 249.843 121.346C249.049 121.669 248.197 121.824 247.34 121.8ZM281.34 64.55C282.156 64.5507 282.962 64.7301 283.702 65.0756C284.441 65.4212 285.096 65.9244 285.62 66.55C286.704 67.6098 287.353 69.0364 287.44 70.55C287.392 71.4928 287.136 72.4134 286.692 73.2465C286.248 74.0795 285.626 74.8045 284.87 75.37L252.69 105L252.16 90.23L276.66 66.58C277.266 65.9399 277.997 65.4298 278.806 65.0808C279.616 64.7318 280.488 64.5512 281.37 64.55H281.34ZM283 121.69C282.106 121.702 281.22 121.517 280.406 121.147C279.591 120.777 278.869 120.232 278.29 119.55L258.49 98.55L268.23 89.55L287.49 110.55C288.767 111.829 289.486 113.562 289.49 115.37C289.508 116.246 289.32 117.113 288.939 117.902C288.558 118.691 287.997 119.379 287.3 119.91C286.114 120.981 284.595 121.609 283 121.69Z" fill="#3B3F3F"/>
<path d="M343.21 64.55C344.066 64.5265 344.917 64.6805 345.711 65.0024C346.504 65.3242 347.222 65.8069 347.82 66.42C348.418 67.0366 348.886 67.7665 349.196 68.5669C349.507 69.3672 349.655 70.2218 349.63 71.08V116.55C349.63 123.123 348.4 128.35 345.94 132.23C343.61 136.005 340.145 138.946 336.04 140.63C331.622 142.396 326.898 143.269 322.14 143.2C319.704 143.189 317.271 143.009 314.86 142.66C312.695 142.407 310.574 141.869 308.55 141.06C306.739 140.4 305.184 139.181 304.11 137.58C303.706 136.922 303.453 136.182 303.368 135.415C303.284 134.647 303.37 133.87 303.62 133.14C303.829 132.263 304.212 131.436 304.746 130.71C305.28 129.983 305.955 129.371 306.73 128.91C307.414 128.54 308.17 128.325 308.945 128.278C309.721 128.232 310.497 128.355 311.22 128.64C312.36 129 313.857 129.553 315.71 130.3C317.761 131.087 319.944 131.47 322.14 131.43C324.927 131.512 327.705 131.057 330.32 130.09C332.455 129.242 334.205 127.641 335.24 125.59C336.469 122.9 337.038 119.955 336.9 117V109.83L339.15 112.4C338.034 114.625 336.487 116.607 334.6 118.23C332.699 119.813 330.499 120.996 328.13 121.71C325.353 122.533 322.467 122.931 319.57 122.89C316.088 122.969 312.654 122.057 309.67 120.26C306.838 118.502 304.558 115.982 303.09 112.99C301.473 109.677 300.668 106.026 300.74 102.34V71.08C300.715 70.2218 300.863 69.3672 301.174 68.5669C301.485 67.7665 301.953 67.0366 302.55 66.42C303.784 65.222 305.436 64.552 307.155 64.552C308.875 64.552 310.526 65.222 311.76 66.42C312.359 67.0361 312.828 67.7657 313.141 68.5661C313.454 69.3664 313.603 70.2211 313.58 71.08V98.47C313.58 103.137 314.597 106.4 316.63 108.26C318.663 110.12 321.497 111.067 325.13 111.1C327.323 111.169 329.497 110.67 331.44 109.65C333.19 108.679 334.59 107.182 335.44 105.37C336.426 103.207 336.901 100.846 336.83 98.47V71.08C336.807 70.2211 336.957 69.3664 337.269 68.5661C337.582 67.7657 338.051 67.0361 338.65 66.42C339.242 65.8126 339.952 65.3333 340.736 65.0116C341.52 64.6899 342.362 64.5328 343.21 64.55Z" fill="#3B3F3F"/>
<path d="M395.54 46.9C399.27 46.8977 402.914 48.0161 406 50.11C409.294 52.3044 411.994 55.2794 413.86 58.77C415.885 62.5137 416.918 66.7139 416.86 70.97C416.911 75.1903 415.878 79.3531 413.86 83.06C411.99 86.5637 409.291 89.5572 406 91.78C402.936 93.9031 399.298 95.0436 395.57 95.05H375.85L376.92 93.12V115.27C376.974 116.983 376.361 118.65 375.21 119.92C374.641 120.541 373.944 121.031 373.167 121.356C372.39 121.681 371.552 121.832 370.71 121.8C369.887 121.823 369.069 121.667 368.313 121.343C367.556 121.018 366.88 120.533 366.33 119.92C365.171 118.654 364.554 116.985 364.61 115.27V53.42C364.595 52.5588 364.754 51.7035 365.077 50.905C365.4 50.1066 365.88 49.3814 366.49 48.7728C367.099 48.1643 367.825 47.6848 368.624 47.363C369.423 47.0412 370.279 46.8838 371.14 46.9H395.54ZM395.54 82.85C397.04 82.8004 398.467 82.1903 399.54 81.14C400.897 79.89 401.988 78.3801 402.75 76.7C403.984 74.0645 404.338 71.1021 403.76 68.25C403.182 65.3979 401.703 62.8071 399.54 60.86C398.46 59.828 397.033 59.2361 395.54 59.2H375.63L376.92 57.28V84.56L375.74 82.85H395.54Z" fill="#3B3F3F"/>
<path d="M473.86 63.48C474.71 63.4543 475.557 63.6025 476.348 63.9155C477.139 64.2284 477.857 64.6996 478.46 65.3C479.067 65.9187 479.541 66.6546 479.854 67.4626C480.167 68.2707 480.312 69.134 480.28 70V115.26C480.304 116.117 480.155 116.971 479.842 117.77C479.529 118.569 479.059 119.296 478.46 119.91C477.232 121.114 475.58 121.789 473.86 121.789C472.14 121.789 470.488 121.114 469.26 119.91C468.66 119.296 468.19 118.569 467.878 117.77C467.565 116.971 467.416 116.117 467.44 115.26V110L469.79 111C469.655 112.251 469.134 113.429 468.3 114.37C467.13 115.852 465.761 117.165 464.23 118.27C462.391 119.632 460.371 120.733 458.23 121.54C455.817 122.448 453.258 122.902 450.68 122.88C445.95 122.933 441.305 121.613 437.31 119.08C433.268 116.498 429.996 112.874 427.84 108.59C425.451 103.832 424.256 98.5633 424.36 93.24C424.247 87.8805 425.441 82.5742 427.84 77.78C429.979 73.5181 433.208 69.8988 437.2 67.29C441.068 64.7787 445.588 63.4575 450.2 63.49C453.079 63.4615 455.941 63.9318 458.66 64.88C461.05 65.7177 463.301 66.9075 465.34 68.41C467.016 69.6245 468.496 71.0881 469.73 72.75C470.603 73.7976 471.143 75.0828 471.28 76.44L467.43 77.83V70C467.407 69.1411 467.556 68.2863 467.869 67.486C468.181 66.6857 468.651 65.956 469.25 65.34C469.847 64.7272 470.566 64.2454 471.359 63.9252C472.153 63.605 473.004 63.4533 473.86 63.48ZM452.25 111.1C455.171 111.16 458.043 110.338 460.49 108.74C462.871 107.135 464.775 104.917 466 102.32C467.355 99.4836 468.04 96.3733 468 93.23C468.048 90.0505 467.364 86.9025 466 84.03C464.775 81.4327 462.871 79.2146 460.49 77.61C458.043 76.0121 455.171 75.1896 452.25 75.25C449.364 75.1981 446.53 76.0208 444.12 77.61C441.737 79.2028 439.829 81.4108 438.6 84C437.236 86.8725 436.552 90.0205 436.6 93.2C436.56 96.3433 437.244 99.4536 438.6 102.29C439.825 104.89 441.733 107.109 444.12 108.71C446.526 110.31 449.361 111.143 452.25 111.1Z" fill="#3B3F3F"/>
<path d="M535.39 64.55C536.244 64.5273 537.094 64.6817 537.886 65.0035C538.677 65.3253 539.394 65.8076 539.99 66.42C540.589 67.036 541.058 67.7657 541.371 68.566C541.684 69.3663 541.833 70.2211 541.81 71.08V116.55C541.81 123.123 540.577 128.35 538.11 132.23C535.783 136.004 532.321 138.944 528.22 140.63C523.798 142.395 519.071 143.268 514.31 143.2C511.874 143.189 509.441 143.009 507.03 142.66C504.865 142.407 502.744 141.869 500.72 141.06C498.91 140.397 497.357 139.179 496.28 137.58C495.878 136.921 495.626 136.181 495.543 135.414C495.46 134.646 495.548 133.87 495.8 133.14C496.005 132.262 496.386 131.435 496.918 130.709C497.451 129.982 498.125 129.37 498.9 128.91C499.583 128.54 500.339 128.325 501.115 128.278C501.891 128.231 502.667 128.355 503.39 128.64C504.53 129 506.03 129.553 507.89 130.3C509.937 131.087 512.117 131.471 514.31 131.43C517.097 131.513 519.875 131.058 522.49 130.09C524.625 129.239 526.378 127.639 527.42 125.59C528.643 122.891 529.209 119.94 529.07 116.98V109.81L531.32 112.38C530.207 114.607 528.66 116.589 526.77 118.21C524.869 119.793 522.669 120.976 520.3 121.69C517.522 122.513 514.636 122.911 511.74 122.87C508.257 122.949 504.824 122.037 501.84 120.24C499.008 118.482 496.728 115.962 495.26 112.97C493.643 109.657 492.838 106.006 492.91 102.32V71.08C492.884 70.2208 493.032 69.3652 493.345 68.5645C493.658 67.7638 494.129 67.0344 494.73 66.42C495.961 65.2203 497.611 64.5489 499.33 64.5489C501.049 64.5489 502.699 65.2203 503.93 66.42C504.529 67.036 504.998 67.7657 505.311 68.566C505.624 69.3663 505.773 70.2211 505.75 71.08V98.47C505.75 103.137 506.767 106.4 508.8 108.26C510.8 110.15 513.67 111.1 517.3 111.1C519.496 111.168 521.673 110.669 523.62 109.65C525.365 108.673 526.763 107.177 527.62 105.37C528.601 103.205 529.076 100.846 529.01 98.47V71.08C528.984 70.2208 529.132 69.3652 529.445 68.5645C529.758 67.7638 530.229 67.0344 530.83 66.42C531.42 65.8112 532.13 65.3308 532.915 65.0091C533.699 64.6873 534.542 64.531 535.39 64.55Z" fill="#3B3F3F"/>
<path opacity="0.9" d="M88.81 24.24H164.41C165.002 24.2281 165.586 24.3726 166.104 24.6589C166.622 24.9452 167.055 25.3632 167.359 25.8706C167.663 26.378 167.828 26.9568 167.837 27.5485C167.846 28.1401 167.699 28.7236 167.41 29.24L118.65 134.66C117.65 137.66 114.65 138.66 111.65 138.66H70.9C68.9 138.66 66.9 136.66 67.9 134.66L84.83 27.23C84.83 26.23 86.82 24.24 88.81 24.24Z" fill="#3AE3F9"/>
<path opacity="0.95" d="M53.77 156.38L129.77 43.5C132.15 39.93 129.77 36.37 126.21 36.37H52.59C51.3562 36.4518 50.1939 36.9782 49.3186 37.8517C48.4433 38.7251 47.9144 39.8863 47.83 41.12C47.83 41.12 37.14 94.59 43.08 156.38C44.27 158.76 51.4 157.57 53.77 156.38Z" fill="#001F3F"/>
</svg>
