<svg width="853" height="644" viewBox="0 0 853 644" fill="none" xmlns="http://www.w3.org/2000/svg">
<path d="M774.376 422.32C798.52 427.822 819.795 442.02 834.141 462.204C848.487 482.389 854.901 507.148 852.159 531.76C849.418 556.371 837.712 579.112 819.276 595.645C800.84 612.178 776.963 621.346 752.2 621.4H475C443.753 621.431 413.609 609.851 390.42 588.908C367.231 567.964 352.652 539.152 349.511 508.063C346.371 476.974 354.894 445.828 373.427 420.67C391.959 395.512 419.178 378.138 449.8 371.92V369.4C449.784 356.072 453.292 342.977 459.968 331.442C466.643 319.907 476.25 310.342 487.814 303.715C499.377 297.089 512.487 293.638 525.815 293.711C539.142 293.784 552.214 297.379 563.704 304.132C581.387 286.66 603.86 274.833 628.274 270.151C652.688 265.469 677.943 268.144 700.835 277.835C723.727 287.526 743.225 303.798 756.856 324.586C770.487 345.374 777.637 369.742 777.4 394.6C777.4 404.176 776.392 413.248 774.376 422.32Z" fill="url(#paint0_linear_3643_1024)"/>
<path d="M296.227 644.001H101.734C74.4755 644.001 49.1018 634.574 30.2884 617.444C10.7569 599.661 0 575.001 0 548.001C0 520.566 10.0163 496.911 28.9644 479.586C42.5115 467.189 60.5469 458.399 80.7143 454.184C82.5732 453.798 84.3139 452.974 85.7928 451.781C87.2716 450.588 88.4462 449.059 89.2196 447.321C96.3999 431.115 107.155 416.754 120.675 405.321C140.453 388.769 164.944 380.001 191.5 380.001C221.372 379.871 250.119 391.412 271.646 412.176C290.145 430.034 302.69 453.636 308.435 481.176C308.896 483.434 309.996 485.512 311.604 487.16C313.212 488.808 315.259 489.956 317.501 490.469C351.582 498.066 383 522.824 383 566.001C383 591.044 373.844 611.586 356.512 625.424C341.281 637.574 320.441 644.001 296.227 644.001Z" fill="url(#paint1_linear_3643_1024)"/>
<circle cx="164.5" cy="100.5" r="26.5" fill="#F5F5F5"/>
<circle cx="740.5" cy="233.5" r="26.5" fill="#F5F5F5"/>
<circle cx="655.5" cy="26.5" r="26.5" fill="#F5F5F5"/>
<circle cx="26.5" cy="372.5" r="26.5" fill="#F5F5F5"/>
<circle cx="655.5" cy="551.5" r="26.5" fill="#F5F5F5"/>
<path d="M552.793 240.765C546.413 176.882 502.467 124 425 124C347.533 124 303.643 176.47 297.208 240.765H295.283C245.37 240.765 205 282.345 205 333.633C205 384.92 245.425 426.5 295.255 426.5H363.73C366.474 395.031 378.581 365.106 398.489 340.581C418.398 316.056 445.195 298.055 475.428 288.9C505.66 279.745 537.942 279.854 568.111 289.214C598.281 298.574 624.956 316.756 644.698 341.415C644.89 338.858 645 336.245 645 333.633C645 282.345 604.575 240.765 554.745 240.765H552.793ZM645 440.25C645 473.071 631.962 504.547 608.754 527.754C585.547 550.962 554.071 564 521.25 564C488.429 564 456.953 550.962 433.746 527.754C410.538 504.547 397.5 473.071 397.5 440.25C397.5 407.429 410.538 375.953 433.746 352.746C456.953 329.538 488.429 316.5 521.25 316.5C554.071 316.5 585.547 329.538 608.754 352.746C631.962 375.953 645 407.429 645 440.25ZM521.25 371.5C517.603 371.5 514.106 372.949 511.527 375.527C508.949 378.106 507.5 381.603 507.5 385.25V440.25C507.5 443.897 508.949 447.394 511.527 449.973C514.106 452.551 517.603 454 521.25 454C524.897 454 528.394 452.551 530.973 449.973C533.551 447.394 535 443.897 535 440.25V385.25C535 381.603 533.551 378.106 530.973 375.527C528.394 372.949 524.897 371.5 521.25 371.5ZM521.25 512.438C525.808 512.438 530.18 510.627 533.403 507.403C536.627 504.18 538.438 499.808 538.438 495.25C538.438 490.692 536.627 486.32 533.403 483.097C530.18 479.873 525.808 478.062 521.25 478.062C516.692 478.062 512.32 479.873 509.097 483.097C505.873 486.32 504.062 490.692 504.062 495.25C504.062 499.808 505.873 504.18 509.097 507.403C512.32 510.627 516.692 512.438 521.25 512.438Z" fill="#C9C9C9"/>
<defs>
<linearGradient id="paint0_linear_3643_1024" x1="600.826" y1="267.905" x2="600.826" y2="621.4" gradientUnits="userSpaceOnUse">
<stop offset="0.275343" stop-color="#E7E7E7"/>
<stop offset="1" stop-color="white" stop-opacity="0"/>
</linearGradient>
<linearGradient id="paint1_linear_3643_1024" x1="191.5" y1="380" x2="191.5" y2="644.001" gradientUnits="userSpaceOnUse">
<stop offset="0.275343" stop-color="#E7E7E7"/>
<stop offset="1" stop-color="white" stop-opacity="0"/>
</linearGradient>
</defs>
</svg>
